<svg xmlns="http://www.w3.org/2000/svg" width="1400" height="1800" viewBox="0 0 1400 1800" preserveAspectRatio="xMidYMid slice">
  <defs>
    <filter id="darkveins" x="-30%" y="-30%" width="160%" height="160%">
      <feTurbulence type="turbulence" baseFrequency="0.009 0.021" numOctaves="6" seed="11" stitchTiles="stitch" result="t"/>
      <feColorMatrix in="t" type="matrix"
        values="0 0 0 0 0.22
                0 0 0 0 0.21
                0 0 0 0 0.18
                0 0 0 -1.4 0.92"/>
    </filter>
    <filter id="goldveins" x="-30%" y="-30%" width="160%" height="160%">
      <feTurbulence type="turbulence" baseFrequency="0.0014 0.0052" numOctaves="3" seed="42" stitchTiles="stitch" result="g"/>
      <feColorMatrix in="g" type="matrix"
        values="0 0 0 0 0.80
                0 0 0 0 0.63
                0 0 0 0 0.30
                0 0 0 -11 0.52"/>
    </filter>
    <filter id="softvein" x="-20%" y="-20%" width="140%" height="140%">
      <feGaussianBlur stdDeviation="0.8"/>
    </filter>
    <filter id="grain">
      <feTurbulence type="fractalNoise" baseFrequency="0.8" numOctaves="2" seed="5" result="n"/>
      <feColorMatrix in="n" type="matrix"
        values="0 0 0 0 0
                0 0 0 0 0
                0 0 0 0 0
                0 0 0 0.05 0"/>
    </filter>
  </defs>

  <rect width="100%" height="100%" fill="#141210"/>

  <g transform="rotate(-21 700 900)">
    <rect x="-500" y="-500" width="2400" height="2800" filter="url(#darkveins)" opacity="0.40"/>
    <rect x="-500" y="-500" width="2400" height="2800" filter="url(#goldveins)" opacity="0.80"/>
  </g>

  <g filter="url(#softvein)" fill="none" stroke-linecap="round">
    <path d="M -60 240 C 260 360 380 180 640 440 S 980 560 1180 380 S 1480 520 1520 460"
          stroke="#cBA45a" stroke-width="2.4" opacity="0.55"/>
    <path d="M 520 410 C 560 520 700 560 740 720" stroke="#c9a24e" stroke-width="1.2" opacity="0.4"/>
    <path d="M 1180 380 C 1230 300 1300 320 1360 250" stroke="#c9a24e" stroke-width="1" opacity="0.35"/>

    <path d="M -40 1180 C 320 1020 520 1280 820 1080 S 1260 980 1460 1180"
          stroke="#d8b76a" stroke-width="2.6" opacity="0.6"/>
    <path d="M 820 1080 C 860 1180 760 1280 800 1420" stroke="#c9a24e" stroke-width="1.1" opacity="0.4"/>

    <path d="M 120 1640 C 420 1500 560 1700 900 1560 S 1300 1620 1500 1500"
          stroke="#c9a24e" stroke-width="1.8" opacity="0.45"/>
    <path d="M -40 760 C 200 700 360 840 560 760" stroke="#c9a24e" stroke-width="1.3" opacity="0.35"/>
  </g>

  <rect width="100%" height="100%" filter="url(#grain)"/>
</svg>
